<svg width="42" height="42" viewBox="0 0 42 42" fill="none" xmlns="http://www.w3.org/2000/svg">
<g id="tera logo - 1000x1000-svg 3">
<g id="Group">
<g id="Group_2">
<g id="Group_3">
<g id="Group_4">
<g id="Group_5">
<path id="Vector" d="M7.39846 27.7827L6.81424 28.5412H5.77222V30.6987H4.87006V28.5412H3.50128L4.0855 27.7827H7.39846Z" fill="#1A3B66" stroke="white" stroke-width="0.00975" stroke-miterlimit="10"/>
<path id="Vector_2" d="M11.06 29.9488L10.4804 30.6985H7.67316V27.7824H11.0512L10.467 28.5409H8.57952V28.8895H10.8899L10.3712 29.5523H8.57952V29.9488H11.06Z" fill="#1A3B66" stroke="white" stroke-width="0.00975" stroke-miterlimit="10"/>
<path id="Vector_3" d="M15.5056 30.6985H14.2981L13.6488 29.9269H12.2628V30.6985H11.3607V29.2079H13.8975C14.0369 29.2079 14.1545 29.1789 14.2507 29.1205C14.3464 29.0626 14.3943 28.9824 14.3943 28.8807C14.3943 28.7673 14.3506 28.6825 14.2637 28.6258C14.1763 28.5691 14.0545 28.5409 13.8975 28.5409H11.3607L11.9491 27.7824H13.8235C13.989 27.7824 14.1604 27.7975 14.338 27.8282C14.5153 27.8589 14.6766 27.913 14.8219 27.9916C14.9672 28.0701 15.0869 28.1759 15.1814 28.3099C15.2759 28.4435 15.3234 28.6153 15.3234 28.8244C15.3234 28.9378 15.3057 29.0453 15.2709 29.147C15.236 29.2486 15.186 29.3402 15.1205 29.4217C15.055 29.5032 14.9752 29.572 14.8807 29.6287C14.7862 29.6854 14.6795 29.7253 14.5602 29.7484C14.6098 29.7862 14.6648 29.8341 14.7257 29.8925C14.7866 29.9504 14.8681 30.0307 14.9697 30.1323L15.5056 30.6985Z" fill="#1A3B66" stroke="white" stroke-width="0.00975" stroke-miterlimit="10"/>
<path id="Vector_4" d="M17.0629 30.699L17.6077 29.9493H18.3402C18.4275 29.9493 18.5182 29.9493 18.6127 29.9493C18.7072 29.9493 18.7891 29.9522 18.8589 29.9581C18.8181 29.906 18.7711 29.8397 18.7173 29.7599C18.6636 29.6801 18.6119 29.6053 18.5628 29.5356L18.0399 28.764L16.6711 30.6994H15.603L17.4729 28.0622C17.5338 27.9778 17.611 27.9026 17.7039 27.8354C17.7967 27.7686 17.9147 27.735 18.0571 27.735C18.1936 27.735 18.3078 27.7661 18.3994 27.8287C18.4909 27.8913 18.5686 27.969 18.6325 28.0618L20.4544 30.699H17.0629Z" fill="#1A3B66" stroke="white" stroke-width="0.00975" stroke-miterlimit="10"/>
<path id="Vector_5" d="M25.1471 28.9462C25.5045 28.9462 25.7763 29.0122 25.9623 29.1445C26.1484 29.2768 26.2412 29.4767 26.2412 29.7438C26.2412 29.8921 26.2181 30.0256 26.1715 30.1449C26.1249 30.2642 26.0509 30.3642 25.9493 30.4456C25.8477 30.5271 25.7175 30.5897 25.5591 30.6329C25.4008 30.6766 25.2109 30.6985 24.9904 30.6985H22.2747L22.8543 29.9488H25.0602C25.1677 29.9488 25.2462 29.932 25.2954 29.8988C25.3449 29.8652 25.3697 29.811 25.3697 29.7354C25.3697 29.6598 25.3449 29.6061 25.2954 29.5741C25.2458 29.5422 25.1677 29.5263 25.0602 29.5263H23.4734C23.2844 29.5263 23.1219 29.5061 22.9849 29.4654C22.8484 29.4246 22.735 29.3679 22.6452 29.2953C22.5549 29.2226 22.4881 29.1348 22.4448 29.0315C22.4011 28.9286 22.3793 28.8144 22.3793 28.6892C22.3793 28.5527 22.4032 28.4284 22.4511 28.3167C22.499 28.2049 22.5733 28.1096 22.6733 28.031C22.7737 27.9525 22.903 27.8916 23.0614 27.8479C23.2197 27.8042 23.4096 27.7824 23.6301 27.7824H26.1627L25.5831 28.5409H23.5603C23.4558 28.5409 23.3781 28.5556 23.3272 28.5846C23.2764 28.6136 23.2508 28.6661 23.2508 28.7413C23.2508 28.8169 23.276 28.8698 23.3272 28.9004C23.3781 28.9311 23.4558 28.9462 23.5603 28.9462H25.1471Z" fill="#1A3B66" stroke="white" stroke-width="0.00975" stroke-miterlimit="10"/>
<path id="Vector_6" d="M28.6836 27.735C29.3925 27.735 29.9251 27.8556 30.2812 28.0967C30.637 28.3377 30.8151 28.7187 30.8151 29.2386C30.8151 29.7615 30.6378 30.1437 30.2833 30.3848C29.9289 30.6259 29.3955 30.7464 28.6836 30.7464C27.9687 30.7464 27.4345 30.6259 27.0817 30.3848C26.7285 30.1437 26.5521 29.7615 26.5521 29.2386C26.5521 28.7183 26.7293 28.3377 27.0838 28.0967C27.4383 27.8556 27.9712 27.735 28.6836 27.735ZM28.6836 29.9888C28.9104 29.9888 29.1019 29.9795 29.259 29.9606C29.416 29.9417 29.5429 29.9048 29.6403 29.8493C29.7378 29.7943 29.8079 29.7179 29.8516 29.6204C29.8953 29.523 29.9171 29.3957 29.9171 29.2391C29.9171 29.082 29.8953 28.9551 29.8516 28.8577C29.8079 28.7603 29.7373 28.6847 29.6403 28.6309C29.5429 28.5771 29.416 28.541 29.259 28.5221C29.1019 28.5032 28.9104 28.4936 28.6836 28.4936C28.4568 28.4936 28.2652 28.5032 28.1082 28.5221C27.9511 28.541 27.8238 28.5771 27.7268 28.6309C27.6294 28.6847 27.5588 28.7603 27.5155 28.8577C27.4719 28.9551 27.45 29.082 27.45 29.2391C27.45 29.3957 27.4719 29.523 27.5155 29.6204C27.5592 29.7179 27.6294 29.7943 27.7268 29.8493C27.8242 29.9048 27.9511 29.9417 28.1082 29.9606C28.2648 29.9791 28.4568 29.9888 28.6836 29.9888Z" fill="#1A3B66" stroke="white" stroke-width="0.00975" stroke-miterlimit="10"/>
<path id="Vector_7" d="M34.5407 27.7825L33.9565 28.5411H32.1778V28.9203H34.3748L33.8254 29.631H32.1778V30.699H31.271V27.783H34.5407V27.7825Z" fill="#1A3B66" stroke="white" stroke-width="0.00975" stroke-miterlimit="10"/>
<path id="Vector_8" d="M38.4723 27.7824L37.888 28.5409H36.8464V30.6985H35.9443V28.5409H34.5755L35.1597 27.7824H38.4723Z" fill="#1A3B66" stroke="white" stroke-width="0.00975" stroke-miterlimit="10"/>
</g>
<g id="Group_6">
<path id="Vector_9" d="M7.59729 33.9171C7.46037 33.8197 7.39191 33.6807 7.39191 33.4988C7.39191 33.4686 7.39317 33.4459 7.39527 33.4308C7.39737 33.3938 7.41375 33.3757 7.44357 33.3757H7.76781C7.80015 33.3757 7.81359 33.3921 7.80939 33.4245C7.80687 33.5282 7.84047 33.6051 7.90935 33.6546C7.97823 33.7042 8.08533 33.7294 8.23023 33.7294C8.37051 33.7294 8.47467 33.7084 8.54229 33.6664C8.60991 33.6244 8.64393 33.5589 8.64393 33.4702C8.64393 33.4077 8.62503 33.3568 8.58723 33.3178C8.54943 33.2787 8.47971 33.2401 8.37849 33.201L7.87827 32.9998C7.71489 32.9373 7.59939 32.8621 7.53177 32.7743C7.46373 32.6869 7.43013 32.5769 7.43013 32.445C7.43013 32.2548 7.49439 32.1107 7.62333 32.012C7.75185 31.9137 7.94505 31.8646 8.20293 31.8646C8.46039 31.8646 8.66031 31.9112 8.80311 32.004C8.94549 32.0968 9.01689 32.2321 9.01689 32.4093C9.01689 32.4375 9.01563 32.4589 9.01353 32.474C9.01101 32.5131 8.99757 32.5324 8.97195 32.5324H8.64435C8.63049 32.5324 8.62041 32.5282 8.61327 32.5194C8.60655 32.5105 8.60403 32.4954 8.60655 32.474C8.61327 32.3875 8.58051 32.319 8.50827 32.2682C8.43603 32.2174 8.33313 32.1922 8.19957 32.1922C7.96269 32.1922 7.84425 32.2732 7.84425 32.4354C7.84425 32.4937 7.86441 32.5425 7.90473 32.5811C7.94505 32.6202 8.01561 32.6601 8.11683 32.7012L8.60991 32.899C8.77329 32.9637 8.88879 33.0389 8.95641 33.1246C9.02403 33.2098 9.05805 33.322 9.05805 33.4602C9.05805 33.8621 8.77539 34.0633 8.20965 34.0633C7.93791 34.0633 7.73379 34.0146 7.59729 33.9171Z" fill="#1A3B66"/>
<path id="Vector_10" d="M10.9025 33.8576C10.7496 33.7215 10.6732 33.5237 10.6732 33.2641V32.6576C10.6732 32.3981 10.7496 32.2002 10.9025 32.0642C11.0554 31.9281 11.2826 31.86 11.5837 31.86C11.8828 31.86 12.1083 31.9281 12.2616 32.0642C12.4145 32.2002 12.4909 32.3981 12.4909 32.6576V33.2641C12.4909 33.5237 12.4145 33.7211 12.2616 33.8576C12.1087 33.9936 11.8828 34.0617 11.5837 34.0617C11.2826 34.0621 11.0554 33.9936 10.9025 33.8576ZM11.9512 33.5997C12.0352 33.5186 12.0772 33.4002 12.0772 33.2448V32.6774C12.0772 32.5215 12.0352 32.4035 11.9512 32.3225C11.8672 32.2414 11.745 32.2007 11.5837 32.2007C11.4203 32.2007 11.2969 32.241 11.2129 32.3225C11.1289 32.4035 11.0869 32.522 11.0869 32.6774V33.2448C11.0869 33.4006 11.1289 33.5186 11.2129 33.5997C11.2969 33.6807 11.4203 33.7211 11.5837 33.7211C11.7446 33.7215 11.8672 33.6807 11.9512 33.5997Z" fill="#1A3B66"/>
<path id="Vector_11" d="M14.2005 33.9838V31.938C14.2005 31.9119 14.2131 31.8989 14.2383 31.8989H14.5764C14.6016 31.8989 14.6142 31.9119 14.6142 31.938V33.6793H15.5214C15.5327 33.6793 15.5428 33.6831 15.5508 33.6906C15.5588 33.6982 15.563 33.7074 15.563 33.7184V33.9842C15.563 33.9951 15.5588 34.0044 15.5508 34.0119C15.5428 34.0195 15.5332 34.0233 15.5214 34.0233H14.2383C14.2131 34.0229 14.2005 34.0098 14.2005 33.9838Z" fill="#1A3B66"/>
<path id="Vector_12" d="M17.3344 33.8592C17.1828 33.724 17.1068 33.5249 17.1068 33.2612V31.9382C17.1068 31.9121 17.1194 31.8991 17.1446 31.8991H17.4793C17.4906 31.8991 17.5007 31.9029 17.5087 31.9104C17.5167 31.918 17.5209 31.9272 17.5209 31.9382V33.2544C17.5209 33.4056 17.5604 33.5216 17.6397 33.6014C17.7191 33.6816 17.8367 33.7215 17.9934 33.7215C18.1496 33.7215 18.2676 33.6816 18.347 33.6014C18.4264 33.5216 18.4659 33.4056 18.4659 33.2544V31.9382C18.4659 31.9121 18.4785 31.8991 18.5037 31.8991H18.8384C18.8498 31.8991 18.8598 31.9029 18.8678 31.9104C18.8758 31.918 18.88 31.9272 18.88 31.9382V33.2675C18.88 33.5249 18.8036 33.7215 18.6507 33.8576C18.4978 33.9936 18.2786 34.0617 17.9938 34.0617C17.7057 34.0621 17.486 33.9945 17.3344 33.8592Z" fill="#1A3B66"/>
<path id="Vector_13" d="M21.0973 34.0112C21.0893 34.0036 21.0851 33.9944 21.0851 33.9834V32.2421H20.4921C20.4807 32.2421 20.4707 32.2383 20.4627 32.2308C20.4547 32.2232 20.4505 32.214 20.4505 32.2031V31.9372C20.4505 31.9263 20.4543 31.9175 20.4627 31.9095C20.4707 31.9019 20.4803 31.8981 20.4921 31.8981H22.0956C22.107 31.8981 22.1166 31.9019 22.125 31.9095C22.133 31.917 22.1372 31.9263 22.1372 31.9372V32.2031C22.1372 32.214 22.133 32.2232 22.125 32.2308C22.1171 32.2383 22.1074 32.2421 22.0956 32.2421H21.5026V33.9834C21.5026 33.9944 21.4984 34.0036 21.4904 34.0112C21.4824 34.0187 21.4728 34.0225 21.461 34.0225H21.1263C21.1154 34.0225 21.1057 34.0187 21.0973 34.0112Z" fill="#1A3B66"/>
<path id="Vector_14" d="M23.7318 33.984V31.9382C23.7318 31.9121 23.7444 31.8991 23.7696 31.8991H24.1043C24.1156 31.8991 24.1253 31.9029 24.1337 31.9104C24.1417 31.918 24.1459 31.9272 24.1459 31.9382V33.984C24.1459 33.9949 24.1417 34.0041 24.1337 34.0117C24.1257 34.0193 24.1161 34.023 24.1043 34.023H23.7696C23.7444 34.023 23.7318 34.01 23.7318 33.984Z" fill="#1A3B66"/>
<path id="Vector_15" d="M26.0861 33.8576C25.9332 33.7215 25.8568 33.5237 25.8568 33.2641V32.6576C25.8568 32.3981 25.9332 32.2002 26.0861 32.0642C26.239 31.9281 26.4662 31.86 26.7673 31.86C27.0664 31.86 27.2919 31.9281 27.4452 32.0642C27.5981 32.2002 27.6745 32.3981 27.6745 32.6576V33.2641C27.6745 33.5237 27.5981 33.7211 27.4452 33.8576C27.2923 33.9936 27.0664 34.0617 26.7673 34.0617C26.4662 34.0621 26.239 33.9936 26.0861 33.8576ZM27.1348 33.5997C27.2188 33.5186 27.2608 33.4002 27.2608 33.2448V32.6774C27.2608 32.5215 27.2188 32.4035 27.1348 32.3225C27.0508 32.2414 26.9286 32.2007 26.7673 32.2007C26.6039 32.2007 26.4805 32.241 26.3965 32.3225C26.3125 32.4035 26.2705 32.522 26.2705 32.6774V33.2448C26.2705 33.4006 26.3125 33.5186 26.3965 33.5997C26.4805 33.6807 26.6039 33.7211 26.7673 33.7211C26.9282 33.7215 27.0508 33.6807 27.1348 33.5997Z" fill="#1A3B66"/>
<path id="Vector_16" d="M29.3802 33.984V31.9382C29.3802 31.9121 29.3928 31.8991 29.418 31.8991H29.9077C29.9283 31.8991 29.9447 31.9079 29.956 31.9251L30.5112 32.9789C30.6377 33.2187 30.7284 33.4082 30.7838 33.5464H30.7943C30.783 33.3561 30.7771 33.1616 30.7771 32.9625V31.9382C30.7771 31.9121 30.7897 31.8991 30.8149 31.8991H31.1391C31.1505 31.8991 31.1601 31.9029 31.1685 31.9104C31.1765 31.918 31.1807 31.9272 31.1807 31.9382V33.984C31.1807 33.9949 31.1765 34.0041 31.1685 34.0117C31.1606 34.0193 31.1509 34.023 31.1391 34.023H30.6561C30.6356 34.023 30.6192 34.0142 30.6078 33.997L30.0698 32.9789C29.9963 32.8407 29.901 32.6429 29.7834 32.3855H29.7729C29.7796 32.5866 29.7834 32.7929 29.7834 33.005V33.984C29.7834 33.9949 29.7792 34.0041 29.7712 34.0117C29.7632 34.0193 29.7536 34.023 29.7418 34.023H29.4176C29.3928 34.023 29.3802 34.01 29.3802 33.984Z" fill="#1A3B66"/>
<path id="Vector_17" d="M33.027 33.9158C32.8901 33.8184 32.8216 33.6794 32.8216 33.4975C32.8216 33.4673 32.8229 33.4446 32.825 33.4295C32.8271 33.3925 32.8434 33.3744 32.8733 33.3744H33.1975C33.2298 33.3744 33.2433 33.3908 33.2391 33.4232C33.237 33.5269 33.2702 33.6038 33.339 33.6533C33.4079 33.7029 33.515 33.7281 33.6599 33.7281C33.8002 33.7281 33.9044 33.7071 33.972 33.6651C34.0396 33.6231 34.0736 33.5576 34.0736 33.4689C34.0736 33.4064 34.0547 33.3555 34.0169 33.3165C33.9791 33.2774 33.9094 33.2388 33.8082 33.1997L33.308 32.9985C33.1446 32.936 33.0291 32.8608 32.9615 32.773C32.8934 32.6856 32.8598 32.5756 32.8598 32.4437C32.8598 32.2535 32.9241 32.1094 33.053 32.0107C33.182 31.9124 33.3747 31.8633 33.6326 31.8633C33.8901 31.8633 34.09 31.9099 34.2328 32.0027C34.3752 32.0955 34.4466 32.2308 34.4466 32.408C34.4466 32.4362 34.4453 32.4576 34.4432 32.4727C34.4411 32.5118 34.4273 32.5311 34.4016 32.5311H34.074C34.0602 32.5311 34.0497 32.5269 34.043 32.5181C34.0362 32.5092 34.0337 32.4941 34.0362 32.4727C34.043 32.3862 34.0102 32.3177 33.938 32.2669C33.8657 32.2161 33.7624 32.1909 33.6293 32.1909C33.3924 32.1909 33.2739 32.2719 33.2739 32.4341C33.2739 32.4924 33.2941 32.5412 33.3344 32.5798C33.3747 32.6189 33.4453 32.6588 33.5465 32.6999L34.0396 32.8977C34.203 32.9624 34.3185 33.0376 34.3861 33.1233C34.4537 33.2085 34.4877 33.3207 34.4877 33.4589C34.4877 33.8608 34.2051 34.062 33.6393 34.062C33.368 34.062 33.1639 34.0133 33.027 33.9158Z" fill="#1A3B66"/>
</g>
</g>
<g id="Group_7">
<g id="Group_8">
<path id="Vector_18" d="M4.61847 9.99977H11.2137C11.3019 9.79565 11.5102 9.65831 11.745 9.67259C12.0445 9.69065 12.273 9.94853 12.2549 10.248C12.2369 10.5474 11.979 10.7759 11.6795 10.7579C11.4615 10.7448 11.2818 10.6046 11.207 10.4139H4.61847V9.99977Z" fill="url(#paint0_linear_1_3100)"/>
<path id="Vector_19" d="M35.7621 15.4577C34.7739 14.755 33.3299 14.4039 31.4307 14.4039H22.9992C22.4431 14.4039 22.0298 14.3229 21.7598 14.1607C21.4893 13.9986 21.3545 13.7168 21.3545 13.3153C21.3545 12.9138 21.4893 12.6361 21.7598 12.4816C22.0298 12.3274 22.4431 12.2497 22.9992 12.2497H33.747L36.8277 8.21942H23.3696C23.0983 8.21942 22.8371 8.22614 22.5834 8.23874H5.22269L3.89885 9.9578H11.206C11.3156 9.70412 11.5748 9.5336 11.8662 9.55124C12.2388 9.57392 12.5223 9.89396 12.4996 10.2665C12.4769 10.639 12.1569 10.9225 11.7843 10.8999C11.5134 10.8835 11.29 10.7092 11.1968 10.4723H3.50279L2.96939 11.1649H5.51249C5.55785 11.0624 5.66495 10.9935 5.78591 11.0007C5.94005 11.0099 6.05765 11.1393 6.04799 11.2896C6.03875 11.44 5.90603 11.5546 5.75189 11.5458C5.63975 11.5391 5.54735 11.4685 5.50871 11.3728H2.80895L2.11847 12.2691H9.39161V23.7351H14.1863V13.8407H16.7836C16.8399 14.1981 16.9344 14.5371 17.0688 14.8554C17.3006 15.4039 17.6555 15.871 18.1343 16.257C18.6127 16.6429 19.215 16.9441 19.9412 17.1604C20.6669 17.3767 21.5317 17.4846 22.5355 17.4846H30.967C31.5382 17.4846 31.9553 17.5699 32.2178 17.7396C32.3925 17.853 32.508 18.0189 32.5664 18.2347H28.0001C27.8905 17.9811 27.6314 17.8105 27.3399 17.8282C26.9673 17.8509 26.6838 18.1709 26.7065 18.5434C26.7292 18.916 27.0492 19.1995 27.4218 19.1768C27.6927 19.1604 27.9161 18.9861 28.0094 18.7492H32.605C32.5748 19.0722 32.4462 19.3112 32.2182 19.4653C31.9557 19.643 31.5386 19.7316 30.9674 19.7316H19.2465L16.1658 23.7157H30.5966C31.77 23.7157 32.7776 23.5998 33.6193 23.3684C34.461 23.1366 35.1519 22.8048 35.6924 22.3722C36.233 21.94 36.6265 21.4074 36.8739 20.7741C37.1208 20.1411 37.2443 19.4305 37.2443 18.643C37.2443 17.2221 36.75 16.1608 35.7621 15.4577ZM16.7303 13.3266H14.1867V12.2691H16.7731C16.7391 12.5164 16.7219 12.7726 16.7219 13.0372C16.7219 13.1351 16.7252 13.2313 16.7303 13.3266Z" fill="url(#paint1_linear_1_3100)"/>
<path id="Vector_20" d="M19.3053 12.9112C19.0134 12.8936 18.7547 13.0641 18.6451 13.3178H14.136V12.2602H19.672L22.7758 8.22992H5.17191L3.84807 9.94898H11.1552C11.2648 9.6953 11.524 9.52478 11.8155 9.54242C12.188 9.5651 12.4715 9.88514 12.4488 10.2577C12.4262 10.6302 12.1061 10.9137 11.7336 10.891C11.4627 10.8747 11.2392 10.7004 11.146 10.4635H3.45201L2.91861 11.1561H5.46171C5.50707 11.0536 5.61417 10.9847 5.73513 10.9918C5.88927 11.0011 6.00687 11.1304 5.99721 11.2808C5.98797 11.4312 5.85525 11.5458 5.70111 11.537C5.58897 11.5303 5.49657 11.4597 5.45793 11.364H2.75817L2.06769 12.2602H9.34083V23.7262H14.1356V13.8323H18.6363C18.7295 14.0692 18.9525 14.2435 19.2239 14.2599C19.5964 14.2825 19.9164 13.999 19.9391 13.6265C19.9614 13.254 19.6779 12.9339 19.3053 12.9112Z" fill="url(#paint2_linear_1_3100)" stroke="white" stroke-width="0.117" stroke-miterlimit="10"/>
<path id="Vector_21" d="M13.9288 22.3513C15.9879 22.3513 17.6572 20.7612 17.6572 18.7997C17.6572 16.8383 15.9879 15.2482 13.9288 15.2482C11.8697 15.2482 10.2005 16.8383 10.2005 18.7997C10.2005 20.7612 11.8697 22.3513 13.9288 22.3513Z" fill="white"/>
<g id="Group_9">
<g id="Group_10">
<path id="Vector_22" d="M15.1131 17.6644C14.3416 17.5502 13.6381 17.5401 12.9354 17.6464C12.8728 17.656 12.7771 17.7577 12.7762 17.8177C12.764 18.4717 12.7645 19.1265 12.7737 19.7804C12.7745 19.8388 12.8539 19.9387 12.9077 19.9467C13.6263 20.0551 14.3449 20.0576 15.1131 19.9245C15.1131 19.1714 15.1131 18.4276 15.1131 17.6644Z" fill="url(#paint3_linear_1_3100)"/>
<path id="Vector_23" d="M13.512 21.6714C13.7645 21.9276 14.0211 21.9545 14.2693 21.7382C14.615 21.4366 14.7792 21.0305 14.9085 20.6046C14.2487 20.6046 13.6149 20.6046 12.9505 20.6046C13.0748 21.0053 13.2218 21.377 13.512 21.6714Z" fill="url(#paint4_linear_1_3100)"/>
<path id="Vector_24" d="M14.315 15.8952C14.0756 15.6638 13.8227 15.6533 13.5745 15.8713C13.2343 16.1707 13.0844 16.576 12.9466 16.9923C13.6115 16.9923 14.2473 16.9923 14.9072 16.9923C14.7837 16.5844 14.6274 16.1968 14.315 15.8952Z" fill="url(#paint5_linear_1_3100)"/>
<path id="Vector_25" d="M10.9401 19.0669C11.2358 19.4731 11.6718 19.6402 12.1216 19.7696C12.1216 19.1068 12.1216 18.4718 12.1216 17.8221C11.7045 17.9481 11.3026 18.1068 11.0006 18.4458C10.8326 18.6339 10.7831 18.8506 10.9401 19.0669Z" fill="url(#paint6_linear_1_3100)"/>
<path id="Vector_26" d="M15.7396 17.8219C15.7396 18.4889 15.7396 19.121 15.7396 19.7757C16.1432 19.6565 16.5178 19.4973 16.8164 19.2008C17.0768 18.9425 17.0781 18.6674 16.8223 18.4044C16.5271 18.1012 16.1482 17.9496 15.7396 17.8219Z" fill="url(#paint7_linear_1_3100)"/>
<path id="Vector_27" d="M15.6753 17.1689C16.0315 17.3003 16.3918 17.4209 16.7677 17.5507C16.4355 16.8278 15.913 16.3079 15.181 15.9694C15.3107 16.3411 15.4283 16.6867 15.5543 17.0294C15.5741 17.0845 15.6237 17.15 15.6753 17.1689Z" fill="url(#paint8_linear_1_3100)"/>
<path id="Vector_28" d="M16.7617 20.0436C16.4043 20.1713 16.0641 20.2868 15.7302 20.4174C15.6584 20.4455 15.5803 20.5178 15.5525 20.5883C15.4215 20.9218 15.3068 21.262 15.1771 21.6266C15.9112 21.2901 16.4392 20.7731 16.7617 20.0436Z" fill="url(#paint9_linear_1_3100)"/>
<path id="Vector_29" d="M12.2891 17.0953C12.4218 16.7349 12.544 16.3703 12.6708 16.0016C12.0018 16.2763 11.3735 16.9113 11.1458 17.5358C11.4848 17.4161 11.817 17.2998 12.1479 17.1801C12.2 17.1612 12.2744 17.1356 12.2891 17.0953Z" fill="url(#paint10_linear_1_3100)"/>
<path id="Vector_30" d="M12.673 21.6068C12.5453 21.2377 12.4223 20.8781 12.295 20.5199C12.2828 20.4854 12.248 20.4464 12.2148 20.4346C11.8586 20.3086 11.5004 20.1881 11.1224 20.0587C11.4643 20.7673 11.9649 21.2876 12.673 21.6068Z" fill="url(#paint11_linear_1_3100)"/>
</g>
</g>
<path id="Vector_31" d="M37.2492 9.8204H31.4028C31.2407 9.44576 30.8581 9.19376 30.4272 9.2198C29.877 9.25298 29.4582 9.72632 29.4914 10.2761C29.5246 10.8263 29.9979 11.245 30.5477 11.2119C30.948 11.1875 31.2777 10.93 31.4154 10.5802H37.2492V9.8204Z" fill="url(#paint12_linear_1_3100)" stroke="white" stroke-width="0.117" stroke-miterlimit="10"/>
</g>
</g>
</g>
</g>
</g>
</g>
<defs>
<linearGradient id="paint0_linear_1_3100" x1="8.47829" y1="9.08552" x2="8.41143" y2="10.757" gradientUnits="userSpaceOnUse">
<stop stop-color="#1AC4F4"/>
<stop offset="0.0466" stop-color="#21BFF1"/>
<stop offset="0.096" stop-color="#28B7EB"/>
<stop offset="0.1465" stop-color="#2FABE2"/>
<stop offset="0.198" stop-color="#3899D5"/>
<stop offset="0.2501" stop-color="#4084C5"/>
<stop offset="0.302" stop-color="#456BB3"/>
<stop offset="0.3053" stop-color="#466AB2"/>
<stop offset="1" stop-color="#3BB556"/>
</linearGradient>
<linearGradient id="paint1_linear_1_3100" x1="19.0962" y1="0.760019" x2="20.1105" y2="26.1182" gradientUnits="userSpaceOnUse">
<stop stop-color="#1AC4F4"/>
<stop offset="0.0466" stop-color="#21BFF1"/>
<stop offset="0.096" stop-color="#28B7EB"/>
<stop offset="0.1465" stop-color="#2FABE2"/>
<stop offset="0.198" stop-color="#3899D5"/>
<stop offset="0.2501" stop-color="#4084C5"/>
<stop offset="0.302" stop-color="#456BB3"/>
<stop offset="0.3053" stop-color="#466AB2"/>
<stop offset="1" stop-color="#3BB556"/>
</linearGradient>
<linearGradient id="paint2_linear_1_3100" x1="12.0643" y1="1.30339" x2="13.0386" y2="25.662" gradientUnits="userSpaceOnUse">
<stop stop-color="#1AC4F4"/>
<stop offset="0.0466" stop-color="#21BFF1"/>
<stop offset="0.096" stop-color="#28B7EB"/>
<stop offset="0.1465" stop-color="#2FABE2"/>
<stop offset="0.198" stop-color="#3899D5"/>
<stop offset="0.2501" stop-color="#4084C5"/>
<stop offset="0.302" stop-color="#456BB3"/>
<stop offset="0.3053" stop-color="#466AB2"/>
<stop offset="1" stop-color="#3BB556"/>
</linearGradient>
<linearGradient id="paint3_linear_1_3100" x1="13.4195" y1="5.63209" x2="14.2618" y2="26.6883" gradientUnits="userSpaceOnUse">
<stop stop-color="#1AC4F4"/>
<stop offset="0.0466" stop-color="#21BFF1"/>
<stop offset="0.096" stop-color="#28B7EB"/>
<stop offset="0.1465" stop-color="#2FABE2"/>
<stop offset="0.198" stop-color="#3899D5"/>
<stop offset="0.2501" stop-color="#4084C5"/>
<stop offset="0.302" stop-color="#456BB3"/>
<stop offset="0.3053" stop-color="#466AB2"/>
<stop offset="1" stop-color="#3BB556"/>
</linearGradient>
<linearGradient id="paint4_linear_1_3100" x1="13.3303" y1="5.6353" x2="14.1726" y2="26.6915" gradientUnits="userSpaceOnUse">
<stop stop-color="#1AC4F4"/>
<stop offset="0.0466" stop-color="#21BFF1"/>
<stop offset="0.096" stop-color="#28B7EB"/>
<stop offset="0.1465" stop-color="#2FABE2"/>
<stop offset="0.198" stop-color="#3899D5"/>
<stop offset="0.2501" stop-color="#4084C5"/>
<stop offset="0.302" stop-color="#456BB3"/>
<stop offset="0.3053" stop-color="#466AB2"/>
<stop offset="1" stop-color="#3BB556"/>
</linearGradient>
<linearGradient id="paint5_linear_1_3100" x1="13.4726" y1="5.62975" x2="14.3148" y2="26.686" gradientUnits="userSpaceOnUse">
<stop stop-color="#1AC4F4"/>
<stop offset="0.0466" stop-color="#21BFF1"/>
<stop offset="0.096" stop-color="#28B7EB"/>
<stop offset="0.1465" stop-color="#2FABE2"/>
<stop offset="0.198" stop-color="#3899D5"/>
<stop offset="0.2501" stop-color="#4084C5"/>
<stop offset="0.302" stop-color="#456BB3"/>
<stop offset="0.3053" stop-color="#466AB2"/>
<stop offset="1" stop-color="#3BB556"/>
</linearGradient>
<linearGradient id="paint6_linear_1_3100" x1="10.9797" y1="5.72933" x2="11.822" y2="26.7856" gradientUnits="userSpaceOnUse">
<stop stop-color="#1AC4F4"/>
<stop offset="0.0466" stop-color="#21BFF1"/>
<stop offset="0.096" stop-color="#28B7EB"/>
<stop offset="0.1465" stop-color="#2FABE2"/>
<stop offset="0.198" stop-color="#3899D5"/>
<stop offset="0.2501" stop-color="#4084C5"/>
<stop offset="0.302" stop-color="#456BB3"/>
<stop offset="0.3053" stop-color="#466AB2"/>
<stop offset="1" stop-color="#3BB556"/>
</linearGradient>
<linearGradient id="paint7_linear_1_3100" x1="15.8265" y1="5.53568" x2="16.6688" y2="26.5919" gradientUnits="userSpaceOnUse">
<stop stop-color="#1AC4F4"/>
<stop offset="0.0466" stop-color="#21BFF1"/>
<stop offset="0.096" stop-color="#28B7EB"/>
<stop offset="0.1465" stop-color="#2FABE2"/>
<stop offset="0.198" stop-color="#3899D5"/>
<stop offset="0.2501" stop-color="#4084C5"/>
<stop offset="0.302" stop-color="#456BB3"/>
<stop offset="0.3053" stop-color="#466AB2"/>
<stop offset="1" stop-color="#3BB556"/>
</linearGradient>
<linearGradient id="paint8_linear_1_3100" x1="15.5257" y1="5.54793" x2="16.3679" y2="26.6042" gradientUnits="userSpaceOnUse">
<stop stop-color="#1AC4F4"/>
<stop offset="0.0466" stop-color="#21BFF1"/>
<stop offset="0.096" stop-color="#28B7EB"/>
<stop offset="0.1465" stop-color="#2FABE2"/>
<stop offset="0.198" stop-color="#3899D5"/>
<stop offset="0.2501" stop-color="#4084C5"/>
<stop offset="0.302" stop-color="#456BB3"/>
<stop offset="0.3053" stop-color="#466AB2"/>
<stop offset="1" stop-color="#3BB556"/>
</linearGradient>
<linearGradient id="paint9_linear_1_3100" x1="15.358" y1="5.55443" x2="16.2002" y2="26.6107" gradientUnits="userSpaceOnUse">
<stop stop-color="#1AC4F4"/>
<stop offset="0.0466" stop-color="#21BFF1"/>
<stop offset="0.096" stop-color="#28B7EB"/>
<stop offset="0.1465" stop-color="#2FABE2"/>
<stop offset="0.198" stop-color="#3899D5"/>
<stop offset="0.2501" stop-color="#4084C5"/>
<stop offset="0.302" stop-color="#456BB3"/>
<stop offset="0.3053" stop-color="#466AB2"/>
<stop offset="1" stop-color="#3BB556"/>
</linearGradient>
<linearGradient id="paint10_linear_1_3100" x1="11.4662" y1="5.71062" x2="12.3085" y2="26.7669" gradientUnits="userSpaceOnUse">
<stop stop-color="#1AC4F4"/>
<stop offset="0.0466" stop-color="#21BFF1"/>
<stop offset="0.096" stop-color="#28B7EB"/>
<stop offset="0.1465" stop-color="#2FABE2"/>
<stop offset="0.198" stop-color="#3899D5"/>
<stop offset="0.2501" stop-color="#4084C5"/>
<stop offset="0.302" stop-color="#456BB3"/>
<stop offset="0.3053" stop-color="#466AB2"/>
<stop offset="1" stop-color="#3BB556"/>
</linearGradient>
<linearGradient id="paint11_linear_1_3100" x1="11.293" y1="5.71656" x2="12.1352" y2="26.7728" gradientUnits="userSpaceOnUse">
<stop stop-color="#1AC4F4"/>
<stop offset="0.0466" stop-color="#21BFF1"/>
<stop offset="0.096" stop-color="#28B7EB"/>
<stop offset="0.1465" stop-color="#2FABE2"/>
<stop offset="0.198" stop-color="#3899D5"/>
<stop offset="0.2501" stop-color="#4084C5"/>
<stop offset="0.302" stop-color="#456BB3"/>
<stop offset="0.3053" stop-color="#466AB2"/>
<stop offset="1" stop-color="#3BB556"/>
</linearGradient>
<linearGradient id="paint12_linear_1_3100" x1="33.299" y1="8.26689" x2="33.4218" y2="11.3359" gradientUnits="userSpaceOnUse">
<stop stop-color="#1AC4F4"/>
<stop offset="0.0466" stop-color="#21BFF1"/>
<stop offset="0.096" stop-color="#28B7EB"/>
<stop offset="0.1465" stop-color="#2FABE2"/>
<stop offset="0.198" stop-color="#3899D5"/>
<stop offset="0.2501" stop-color="#4084C5"/>
<stop offset="0.302" stop-color="#456BB3"/>
<stop offset="0.3053" stop-color="#466AB2"/>
<stop offset="1" stop-color="#3BB556"/>
</linearGradient>
</defs>
</svg>
